<?xml version="1.0" encoding="utf-8"?>
<!-- Generator: Adobe Illustrator 18.0.0, SVG Export Plug-In . SVG Version: 6.00 Build 0)  -->
<!DOCTYPE svg PUBLIC "-//W3C//DTD SVG 1.1 Tiny//EN" "http://www.w3.org/Graphics/SVG/1.1/DTD/svg11-tiny.dtd">
<svg version="1.1" baseProfile="tiny" id="Layer_1" xmlns="http://www.w3.org/2000/svg" xmlns:xlink="http://www.w3.org/1999/xlink"
	 x="0px" y="0px" width="151px" height="21px" viewBox="0 0 151 21" xml:space="preserve">
<g>
	<g>
		<circle fill="#FFFFFF" cx="11.1" cy="10.4" r="2.8"/>
		<path fill="#FFFFFF" d="M21.5,9.5l-2.5-4.3c0,0,0,0,0,0l-1.9-3.3c-0.4-0.6-1-0.9-1.6-0.9H6.8C6.1,1,5.5,1.3,5.1,1.9L2.7,6.2l0,0
			L4.9,10l3-5.2l10.4,0c0.3,0,0.6,0.2,0.8,0.5h-4.4l3,5.2l-3.3,5.7h0l-1.9,3.3c-0.2,0.3-0.5,0.5-0.8,0.5l2.2-3.8h-6l-3-5.2l0,0
			l-0.3-0.4l0,0L2.7,7.1c-0.2-0.3-0.2-0.6,0-0.9L0.8,9.5c-0.4,0.6-0.3,1.3,0,1.9L5.1,19c0.4,0.6,1,0.9,1.6,0.9l4.9,0
			c0,0,0.1,0,0.1,0l3.7,0c0.7,0,1.3-0.4,1.6-0.9l4.4-7.6C21.9,10.8,21.9,10,21.5,9.5z M6.8,3.5C6.5,3.5,6.2,3.3,6.2,3
			c0-0.3,0.3-0.6,0.6-0.6c0.3,0,0.6,0.3,0.6,0.6C7.3,3.3,7.1,3.5,6.8,3.5z M15.8,3.4c-0.3,0.2-0.6,0.1-0.8-0.2
			C14.9,3,15,2.6,15.2,2.5c0.3-0.2,0.6-0.1,0.8,0.2C16.2,2.9,16.1,3.3,15.8,3.4z M2.9,10.8c-0.2,0.3-0.5,0.4-0.8,0.2
			c-0.3-0.2-0.4-0.5-0.2-0.8C2.1,10,2.4,9.9,2.7,10C3,10.2,3,10.5,2.9,10.8z M7.1,18.6c-0.3,0.2-0.6,0.1-0.8-0.2
			c-0.2-0.3-0.1-0.6,0.2-0.8c0.3-0.2,0.6-0.1,0.8,0.2C7.4,18.1,7.3,18.4,7.1,18.6z M15.5,18.7c-0.3,0-0.6-0.3-0.6-0.6
			c0-0.3,0.3-0.6,0.6-0.6c0.3,0,0.6,0.3,0.6,0.6C16.1,18.4,15.8,18.7,15.5,18.7z M20.4,10.8c-0.2,0.3-0.5,0.4-0.8,0.2
			c-0.3-0.2-0.4-0.5-0.2-0.8c0.2-0.3,0.5-0.4,0.8-0.2C20.4,10.2,20.5,10.5,20.4,10.8z"/>
	</g>
	<g>
		<g>
			<path fill="#FFFFFF" d="M80.2,7.4c-1,0-1.8,0.3-2.4,1c-0.6,0.7-0.9,1.6-0.9,2.7c0,1.2,0.3,2.1,0.8,2.7c0.6,0.6,1.4,1,2.4,1
				c0.7,0,1.3-0.1,1.9-0.3v0.5c-0.5,0.2-1.2,0.3-2,0.3c-1.2,0-2.1-0.4-2.7-1.1c-0.7-0.7-1-1.8-1-3.1c0-0.8,0.2-1.6,0.5-2.2
				c0.3-0.6,0.8-1.1,1.4-1.5c0.6-0.3,1.3-0.5,2.1-0.5c0.8,0,1.5,0.2,2.2,0.5l-0.2,0.5C81.5,7.6,80.9,7.4,80.2,7.4"/>
		</g>
		<rect x="83.6" y="6.5" fill="#FFFFFF" width="0.6" height="8.8"/>
		<g>
			<path fill="#FFFFFF" d="M86.4,12.2c0,0.8,0.2,1.5,0.6,2c0.4,0.5,0.9,0.7,1.6,0.7c0.7,0,1.2-0.2,1.6-0.7c0.4-0.5,0.6-1.1,0.6-2
				c0-0.8-0.2-1.5-0.6-2c-0.4-0.5-0.9-0.7-1.6-0.7c-0.7,0-1.2,0.2-1.6,0.7C86.5,10.7,86.4,11.3,86.4,12.2 M91.2,12.2
				c0,1-0.2,1.8-0.7,2.3c-0.5,0.6-1.2,0.8-2,0.8c-0.5,0-1-0.1-1.4-0.4c-0.4-0.3-0.7-0.6-0.9-1.1c-0.2-0.5-0.3-1-0.3-1.7
				c0-1,0.2-1.8,0.7-2.3C87,9.3,87.6,9,88.5,9c0.8,0,1.5,0.3,2,0.8C90.9,10.4,91.2,11.2,91.2,12.2"/>
			<path fill="#FFFFFF" d="M93.3,9.1v4c0,0.6,0.1,1.1,0.4,1.3c0.3,0.3,0.7,0.4,1.2,0.4c0.7,0,1.3-0.2,1.6-0.6c0.3-0.4,0.5-1,0.5-1.8
				V9.1h0.6v6.1H97l-0.1-0.8h0c-0.4,0.6-1.1,1-2.1,1c-1.4,0-2.1-0.7-2.1-2.2v-4H93.3z"/>
			<path fill="#FFFFFF" d="M101.7,9.5c-0.7,0-1.2,0.2-1.5,0.7c-0.3,0.5-0.5,1.2-0.5,2c0,1.7,0.7,2.6,2,2.6c0.7,0,1.2-0.2,1.5-0.6
				c0.3-0.4,0.5-1.1,0.5-2v-0.1c0-0.9-0.2-1.6-0.5-2C102.9,9.7,102.4,9.5,101.7,9.5 M101.7,9c0.4,0,0.8,0.1,1.1,0.2
				c0.3,0.2,0.6,0.4,0.9,0.8h0c0-0.5,0-0.9,0-1.4V6.5h0.6v8.8h-0.4l-0.1-0.9h0c-0.5,0.7-1.1,1-2,1c-0.8,0-1.5-0.3-1.9-0.8
				c-0.4-0.5-0.7-1.3-0.7-2.3c0-1.1,0.2-1.9,0.7-2.4C100.2,9.3,100.9,9,101.7,9"/>
			<path fill="#FFFFFF" d="M109.8,11.3h1.1c0.9,0,1.6-0.2,2-0.5c0.4-0.3,0.6-0.8,0.6-1.5c0-0.6-0.2-1.1-0.6-1.4
				c-0.4-0.3-1-0.5-1.8-0.5h-1.4V11.3z M114.2,9.4c0,0.8-0.3,1.4-0.8,1.8c-0.5,0.4-1.3,0.6-2.3,0.6h-1.3v3.4h-0.6V7h2
				C113.2,7,114.2,7.8,114.2,9.4"/>
		</g>
		<rect x="115.7" y="6.5" fill="#FFFFFF" width="0.6" height="8.8"/>
		<path fill="#FFFFFF" d="M119.7,14.9c0.7,0,1.2-0.2,1.5-0.6c0.4-0.4,0.6-0.9,0.6-1.6v-0.6l-1.1,0c-0.9,0-1.5,0.2-1.8,0.4
			c-0.4,0.2-0.5,0.6-0.5,1.1c0,0.4,0.1,0.7,0.4,0.9C118.9,14.7,119.2,14.9,119.7,14.9 M121.9,15.2l-0.1-1h0
			c-0.3,0.4-0.6,0.7-0.9,0.8c-0.3,0.2-0.7,0.2-1.2,0.2c-0.6,0-1.1-0.2-1.4-0.5c-0.3-0.3-0.5-0.7-0.5-1.3c0-0.6,0.2-1.1,0.7-1.4
			c0.5-0.3,1.2-0.5,2.2-0.5l1.2,0v-0.4c0-0.6-0.1-1-0.4-1.3c-0.2-0.3-0.6-0.4-1.1-0.4c-0.6,0-1.2,0.2-1.8,0.5l-0.2-0.5
			c0.7-0.3,1.3-0.5,2-0.5c0.7,0,1.2,0.2,1.5,0.5c0.3,0.3,0.5,0.9,0.5,1.6v4.1H121.9z"/>
		<path fill="#FFFFFF" d="M125.8,14.9c0.4,0,0.7,0,0.9-0.1v0.5c-0.3,0.1-0.6,0.1-0.9,0.1c-0.5,0-0.9-0.1-1.2-0.4
			c-0.3-0.3-0.4-0.7-0.4-1.4v-4h-0.9V9.3l0.9-0.3l0.3-1.4h0.3v1.5h1.8v0.5h-1.8v3.9c0,0.5,0.1,0.8,0.2,1
			C125.2,14.8,125.5,14.9,125.8,14.9"/>
		<path fill="#FFFFFF" d="M130.2,9.6h-1.4v5.6h-0.6V9.6h-1.1V9.3l1.1-0.2V8.6c0-0.8,0.1-1.3,0.4-1.7c0.3-0.4,0.7-0.5,1.4-0.5
			c0.3,0,0.7,0.1,1,0.2l-0.1,0.5c-0.3-0.1-0.6-0.1-0.9-0.1c-0.4,0-0.7,0.1-0.9,0.4c-0.2,0.3-0.3,0.7-0.3,1.3v0.6h1.4V9.6z"/>
		<path fill="#FFFFFF" d="M131.5,12.2c0,0.8,0.2,1.5,0.6,2c0.4,0.5,0.9,0.7,1.6,0.7c0.7,0,1.2-0.2,1.6-0.7c0.4-0.5,0.6-1.1,0.6-2
			c0-0.8-0.2-1.5-0.6-2c-0.4-0.5-0.9-0.7-1.6-0.7c-0.7,0-1.2,0.2-1.6,0.7C131.7,10.7,131.5,11.3,131.5,12.2 M136.3,12.2
			c0,1-0.2,1.8-0.7,2.3c-0.5,0.6-1.2,0.8-2,0.8c-0.5,0-1-0.1-1.4-0.4c-0.4-0.3-0.7-0.6-0.9-1.1c-0.2-0.5-0.3-1-0.3-1.7
			c0-1,0.2-1.8,0.7-2.3c0.5-0.6,1.1-0.8,2-0.8c0.8,0,1.5,0.3,2,0.8C136.1,10.4,136.3,11.2,136.3,12.2"/>
		<path fill="#FFFFFF" d="M140.3,9c0.3,0,0.5,0,0.8,0.1l-0.1,0.5c-0.3-0.1-0.5-0.1-0.8-0.1c-0.5,0-0.9,0.2-1.3,0.7
			c-0.3,0.4-0.5,1-0.5,1.7v3.4h-0.6V9.1h0.5l0.1,1.1h0c0.3-0.5,0.5-0.8,0.8-0.9C139.6,9.1,139.9,9,140.3,9"/>
		<path fill="#FFFFFF" d="M149.9,15.2v-4c0-0.6-0.1-1-0.3-1.3c-0.2-0.3-0.6-0.4-1.1-0.4c-0.6,0-1.1,0.2-1.4,0.5
			c-0.3,0.3-0.5,0.9-0.5,1.6v3.6h-0.6v-4.2c0-1-0.5-1.5-1.4-1.5c-0.6,0-1.1,0.2-1.4,0.6c-0.3,0.4-0.4,1-0.4,1.8v3.4h-0.6V9.1h0.5
			l0.1,0.8h0c0.2-0.3,0.4-0.5,0.7-0.7c0.3-0.2,0.7-0.3,1-0.3c1,0,1.6,0.4,1.9,1.1h0c0.2-0.3,0.5-0.6,0.8-0.8
			c0.3-0.2,0.7-0.3,1.1-0.3c0.7,0,1.2,0.2,1.5,0.5c0.3,0.4,0.5,0.9,0.5,1.7v4H149.9z"/>
		<path fill="#FFFFFF" d="M59.2,12.9c0.3-0.4,0.4-0.8,0.4-1.1c0-1.1-0.7-2.8-1.9-2.8c-0.4,0-0.8,0.2-1.1,0.5
			c-0.3,0.3-0.3,0.7-0.3,1.1c0,1,0.6,2.7,1.9,2.7C58.6,13.3,59,13.1,59.2,12.9 M58.8,15.8c-0.1,0-0.2,0-0.3,0c-0.1,0-1,0-1.6,0.2
			c-0.3,0.1-1.3,0.5-1.3,1.6c0,1.1,1,1.9,2.7,1.9c1.4,0,2.2-0.7,2.2-1.6C60.4,17,59.9,16.6,58.8,15.8 M59.9,9c0.3,0.3,1.1,0.9,1.1,2
			c0,1.1-0.6,1.7-1.3,2.2c-0.2,0.2-0.4,0.4-0.4,0.7c0,0.3,0.2,0.5,0.4,0.7l0.5,0.4c0.7,0.6,1.3,1.1,1.3,2.1c0,1.4-1.4,2.9-4,2.9
			c-2.2,0-3.2-1-3.2-2.2c0-0.5,0.3-1.3,1.2-1.9c0.9-0.6,2.2-0.7,2.9-0.7c-0.2-0.3-0.5-0.6-0.5-1c0-0.3,0.1-0.4,0.2-0.6
			c-0.2,0-0.3,0-0.5,0c-1.6,0-2.5-1.2-2.5-2.4c0-0.7,0.3-1.5,1-2c0.9-0.7,1.9-0.8,2.7-0.8h3.1l-1,0.5H59.9z"/>
		<path fill="#FFFFFF" d="M52.2,14.3c0.4-0.5,0.5-1.1,0.5-1.7c0-1.3-0.6-3.9-2.5-3.9c-0.5,0-1,0.2-1.4,0.5c-0.6,0.5-0.7,1.2-0.7,1.8
			c0,1.5,0.7,4,2.6,4C51.3,15.1,51.9,14.8,52.2,14.3 M50.3,15.5c-2.4,0-3.7-1.9-3.7-3.6c0-2,1.6-3.7,3.9-3.7c2.2,0,3.6,1.7,3.6,3.6
			C54.2,13.6,52.8,15.5,50.3,15.5"/>
		<path fill="#FFFFFF" d="M44.1,14.3c0.4-0.5,0.5-1.1,0.5-1.7c0-1.3-0.6-3.9-2.5-3.9c-0.5,0-1,0.2-1.4,0.5c-0.6,0.5-0.7,1.2-0.7,1.8
			c0,1.5,0.7,4,2.6,4C43.1,15.1,43.7,14.8,44.1,14.3 M42.2,15.5c-2.4,0-3.7-1.9-3.7-3.6c0-2,1.6-3.7,3.9-3.7c2.2,0,3.6,1.7,3.6,3.6
			C46,13.6,44.6,15.5,42.2,15.5"/>
		<path fill="#FFFFFF" d="M64.7,14.8c-0.5,0-0.6-0.1-0.6-0.7v-0.2V5.5c0,0,0-0.1,0-0.1c0.1-0.5,0.2-0.6,0.7-0.9h-2.2L61.4,5h1.2v0
			l0,0v8.9v0.5c0,0.3-0.1,0.3-0.4,0.8h2.7l0.6-0.3C65.2,14.9,64.9,14.9,64.7,14.8"/>
		<path fill="#FFFFFF" d="M69.4,10.5c0.3-0.1,0.4-0.2,0.4-0.4c0-0.6-0.7-1.3-1.5-1.3c-0.6,0-1.7,0.5-1.7,2.1c0,0.3,0,0.5,0,0.8
			L69.4,10.5z M70.8,15c-0.2,0.1-0.3,0.2-0.5,0.3c-0.5,0.2-1,0.3-1.5,0.3c-0.5,0-1.2,0-2-0.6c-1.1-0.8-1.5-2.1-1.5-3.2
			c0-2.3,1.9-3.5,3.5-3.5c0.5,0,1.1,0.1,1.6,0.4c0.8,0.5,1,1.1,1.1,1.5l-3.5,1.4l-1.2,0.1c0.4,1.9,1.7,3,3.1,3
			c0.8,0,1.3-0.3,1.8-0.5L70.8,15z"/>
		<path fill="#FFFFFF" d="M37.3,15.3l-2.2,0.5c-0.9,0.1-1.7,0.3-2.5,0.3c-4.2,0-5.8-3.1-5.8-5.5c0-3,2.3-5.7,6.1-5.7
			c0.8,0,1.6,0.1,2.3,0.3c1.1,0.3,1.7,0.7,2,0.9l-1.3,1.2l-0.5,0.1l0.4-0.6c-0.5-0.5-1.5-1.4-3.2-1.4c-2.4,0-4.2,1.8-4.2,4.5
			c0,2.9,2.1,5.6,5.4,5.6c1,0,1.5-0.2,1.9-0.4v-2.5l-2.3,0.1l1.2-0.7h3.2l-0.4,0.4c-0.1,0.1-0.1,0.1-0.2,0.2c0,0.1,0,0.6,0,0.7V15.3
			z"/>
	</g>
</g>
</svg>
